<svg xmlns="http://www.w3.org/2000/svg" xmlns:xlink="http://www.w3.org/1999/xlink" zoomAndPan="magnify" height="300" width="450" viewBox="175 450 1100 600" preserveAspectRatio="xMidYMid meet" version="1.2"><defs><clipPath id="e2dd3f67e0"><path d="M 441 458 L 477 458 L 477 552 L 441 552 Z M 441 458 "/></clipPath><clipPath id="2ad3c31909"><path d="M 127.949219 265.078125 L 1107.855469 290.996094 L 1081.9375 1270.902344 L 102.03125 1244.988281 Z M 127.949219 265.078125 "/></clipPath><clipPath id="c40a0e7b85"><path d="M 127.949219 265.078125 L 1107.855469 290.996094 L 1081.9375 1270.902344 L 102.03125 1244.988281 Z M 127.949219 265.078125 "/></clipPath><clipPath id="67abc1ed98"><path d="M 493 459 L 793 459 L 793 1013 L 493 1013 Z M 493 459 "/></clipPath><clipPath id="9afbf6f703"><path d="M 127.949219 265.078125 L 1107.855469 290.996094 L 1081.9375 1270.902344 L 102.03125 1244.988281 Z M 127.949219 265.078125 "/></clipPath><clipPath id="19466c7e1c"><path d="M 127.949219 265.078125 L 1107.855469 290.996094 L 1081.9375 1270.902344 L 102.03125 1244.988281 Z M 127.949219 265.078125 "/></clipPath><clipPath id="2cfc5ca7bf"><path d="M 596 702 L 673 702 L 673 782 L 596 782 Z M 596 702 "/></clipPath><clipPath id="b6264644f6"><path d="M 127.949219 265.078125 L 1107.855469 290.996094 L 1081.9375 1270.902344 L 102.03125 1244.988281 Z M 127.949219 265.078125 "/></clipPath><clipPath id="ae8c611504"><path d="M 127.949219 265.078125 L 1107.855469 290.996094 L 1081.9375 1270.902344 L 102.03125 1244.988281 Z M 127.949219 265.078125 "/></clipPath><clipPath id="6715e75532"><path d="M 621 486 L 793 486 L 793 918 L 621 918 Z M 621 486 "/></clipPath><clipPath id="ac51e19227"><path d="M 127.949219 265.078125 L 1107.855469 290.996094 L 1081.9375 1270.902344 L 102.03125 1244.988281 Z M 127.949219 265.078125 "/></clipPath><clipPath id="bdf73db8c1"><path d="M 127.949219 265.078125 L 1107.855469 290.996094 L 1081.9375 1270.902344 L 102.03125 1244.988281 Z M 127.949219 265.078125 "/></clipPath><clipPath id="a354e5c6a0"><path d="M 580 471 L 737 471 L 737 579 L 580 579 Z M 580 471 "/></clipPath><clipPath id="f50de1ad7b"><path d="M 127.949219 265.078125 L 1107.855469 290.996094 L 1081.9375 1270.902344 L 102.03125 1244.988281 Z M 127.949219 265.078125 "/></clipPath><clipPath id="549e775d5d"><path d="M 127.949219 265.078125 L 1107.855469 290.996094 L 1081.9375 1270.902344 L 102.03125 1244.988281 Z M 127.949219 265.078125 "/></clipPath><clipPath id="e4cb8f0a6a"><path d="M 637 619 L 914 619 L 914 789 L 637 789 Z M 637 619 "/></clipPath><clipPath id="f04a2b7c82"><path d="M 127.949219 265.078125 L 1107.855469 290.996094 L 1081.9375 1270.902344 L 102.03125 1244.988281 Z M 127.949219 265.078125 "/></clipPath><clipPath id="c57da77656"><path d="M 127.949219 265.078125 L 1107.855469 290.996094 L 1081.9375 1270.902344 L 102.03125 1244.988281 Z M 127.949219 265.078125 "/></clipPath></defs><g id="61be258c9c"><g clip-rule="nonzero" clip-path="url(#e2dd3f67e0)"><g clip-rule="nonzero" clip-path="url(#2ad3c31909)"><g clip-rule="nonzero" clip-path="url(#c40a0e7b85)"><path style=" stroke:none;fill-rule:nonzero;fill:#4cb4d7;fill-opacity:1;" d="M 451.554688 551.34375 C 451.554688 551.34375 454.296875 522.128906 460.308594 502.492188 C 464.769531 487.917969 471.964844 482.59375 476.273438 477.421875 C 476.273438 477.421875 471.0625 466.023438 472.765625 459.609375 C 474.015625 454.902344 462.09375 470.757812 458.671875 476.953125 C 454.652344 484.246094 449.367188 496.136719 445.46875 513.613281 C 441.703125 530.484375 441.039062 551.066406 441.039062 551.066406 Z M 451.554688 551.34375 "/></g></g></g><g clip-rule="nonzero" clip-path="url(#67abc1ed98)"><g clip-rule="nonzero" clip-path="url(#9afbf6f703)"><g clip-rule="nonzero" clip-path="url(#19466c7e1c)"><path style=" stroke:none;fill-rule:nonzero;fill:#4cb4d7;fill-opacity:1;" d="M 493.082031 765.03125 L 518.726562 765.710938 C 540.714844 766.292969 560.726562 778.546875 571.234375 797.871094 L 602.296875 854.988281 C 602.515625 855.390625 602.742188 855.792969 602.96875 856.191406 L 628.082031 900.007812 C 628.082031 900.007812 670.875 962.421875 707.542969 977.964844 C 744.214844 993.511719 785.511719 963.242188 772.863281 879.832031 C 760.996094 801.628906 694.652344 676.972656 690.285156 669.898438 C 685.914062 662.824219 638.484375 586.039062 586.3125 531.699219 C 534.136719 477.359375 500.929688 468.371094 500.929688 468.371094 L 501.164062 459.5 C 501.164062 459.5 533.296875 475.910156 537.5 479.003906 C 541.699219 482.097656 575.339844 501.804688 617.25 548.125 C 659.160156 594.441406 654.304688 591.472656 684.863281 635.753906 C 715.421875 680.035156 737.4375 727.867188 747.339844 751.519531 C 769.167969 803.648438 786.570312 848.300781 791.449219 904.328125 C 798.585938 986.347656 751.1875 1064.601562 642.253906 966.484375 C 606.710938 934.472656 577.667969 897.960938 566.492188 881.742188 C 528.3125 826.351562 493.082031 765.03125 493.082031 765.03125 Z M 493.082031 765.03125 "/></g></g></g><g clip-rule="nonzero" clip-path="url(#2cfc5ca7bf)"><g clip-rule="nonzero" clip-path="url(#b6264644f6)"><g clip-rule="nonzero" clip-path="url(#ae8c611504)"><path style=" stroke:none;fill-rule:nonzero;fill:#4cb4d7;fill-opacity:1;" d="M 653.558594 702.832031 C 662.308594 709.667969 669.476562 716.8125 671.875 728.214844 C 678.824219 761.308594 645.160156 789.832031 613.441406 779.339844 C 605.972656 776.871094 600.542969 772.195312 596.296875 765.777344 C 615.191406 754.074219 619.046875 754.644531 632.949219 738.535156 C 646.847656 722.425781 650.761719 708.617188 653.558594 702.832031 Z M 653.558594 702.832031 "/></g></g></g><g clip-rule="nonzero" clip-path="url(#6715e75532)"><g clip-rule="nonzero" clip-path="url(#ac51e19227)"><g clip-rule="nonzero" clip-path="url(#bdf73db8c1)"><path style=" stroke:none;fill-rule:nonzero;fill:#4cb4d7;fill-opacity:1;" d="M 635.292969 917.5 C 635.292969 917.5 676.6875 874.867188 716.648438 810.8125 C 753.042969 752.476562 781.757812 666.101562 789.554688 611.964844 C 794.082031 580.550781 792.753906 554.714844 789.398438 534.792969 C 784 502.75 773.347656 486.011719 773.347656 486.011719 L 772.625 513.257812 C 772.625 513.257812 783.976562 550.890625 777.632812 611.648438 C 773.542969 650.820312 760.703125 685.585938 737.023438 731.085938 C 713.339844 776.585938 699.429688 796.785156 690.003906 810.105469 C 662.304688 849.242188 621.15625 896.53125 621.15625 896.53125 Z M 635.292969 917.5 "/></g></g></g><g clip-rule="nonzero" clip-path="url(#a354e5c6a0)"><g clip-rule="nonzero" clip-path="url(#f50de1ad7b)"><g clip-rule="nonzero" clip-path="url(#549e775d5d)"><path style=" stroke:none;fill-rule:nonzero;fill:#4cb4d7;fill-opacity:1;" d="M 580.863281 577.957031 L 600.992188 578.492188 C 600.992188 578.492188 667.644531 504.722656 731.394531 489.691406 C 731.394531 489.691406 731.046875 478.550781 736.367188 472.207031 C 741.679688 465.863281 666.253906 483.6875 580.863281 577.957031 Z M 580.863281 577.957031 "/></g></g></g><g clip-rule="nonzero" clip-path="url(#e4cb8f0a6a)"><g clip-rule="nonzero" clip-path="url(#f04a2b7c82)"><g clip-rule="nonzero" clip-path="url(#c57da77656)"><path style=" stroke:none;fill-rule:nonzero;fill:#4cb4d7;fill-opacity:1;" d="M 647.574219 634.363281 C 647.574219 634.363281 871.816406 680.398438 894.402344 754.371094 C 894.402344 754.371094 895.207031 756.195312 892.1875 759.890625 L 891.429688 788.472656 C 891.429688 788.472656 943.691406 762.628906 887.664062 713.386719 C 831.632812 664.140625 729.027344 640.796875 637.949219 619.117188 Z M 647.574219 634.363281 "/></g></g></g><g style="fill:#4eb4d7;fill-opacity:1;"><g transform="translate(337.716744, 979.617642)"><path style="stroke:none" d="M 18.8125 -17.578125 C 24.15625 -17.992188 28.882812 -18.40625 33 -18.8125 C 37.113281 -19.226562 40.914062 -19.640625 44.40625 -20.046875 C 47.90625 -20.460938 51.300781 -20.769531 54.59375 -20.96875 C 57.882812 -21.175781 61.378906 -21.382812 65.078125 -21.59375 C 66.109375 -48.9375 67.085938 -75.972656 68.015625 -102.703125 C 68.941406 -129.441406 69.8125 -155.046875 70.625 -179.515625 C 71.445312 -203.984375 72.269531 -226.804688 73.09375 -247.984375 C 73.914062 -269.160156 74.632812 -287.867188 75.25 -304.109375 C 75.875 -320.359375 76.335938 -333.726562 76.640625 -344.21875 C 76.953125 -354.707031 77.109375 -361.492188 77.109375 -364.578125 C 77.109375 -373.421875 76.488281 -380.617188 75.25 -386.171875 C 74.019531 -391.722656 72.117188 -396.09375 69.546875 -399.28125 C 66.984375 -402.46875 63.75 -404.726562 59.84375 -406.0625 C 55.9375 -407.394531 51.410156 -408.472656 46.265625 -409.296875 L 32.6875 -411.15625 L 32.6875 -429.046875 C 38.445312 -428.222656 44.617188 -427.398438 51.203125 -426.578125 C 56.753906 -425.960938 63.078125 -425.445312 70.171875 -425.03125 C 77.265625 -424.625 84.613281 -424.421875 92.21875 -424.421875 C 99.207031 -424.421875 105.890625 -424.828125 112.265625 -425.640625 C 118.640625 -426.460938 125.21875 -427.335938 132 -428.265625 C 138.789062 -429.191406 145.988281 -430.066406 153.59375 -430.890625 C 161.207031 -431.710938 169.640625 -432.125 178.890625 -432.125 C 203.566406 -432.125 224.644531 -429.085938 242.125 -423.015625 C 259.601562 -416.953125 273.894531 -408.832031 285 -398.65625 C 296.101562 -388.476562 304.222656 -376.859375 309.359375 -363.796875 C 314.503906 -350.742188 317.078125 -337.332031 317.078125 -323.5625 C 317.078125 -304.632812 313.628906 -288.382812 306.734375 -274.8125 C 299.847656 -261.25 291.421875 -249.785156 281.453125 -240.421875 C 271.484375 -231.066406 260.894531 -223.5625 249.6875 -217.90625 C 238.476562 -212.257812 228.554688 -208.097656 219.921875 -205.421875 C 235.546875 -177.253906 251.476562 -150.726562 267.71875 -125.84375 C 283.96875 -100.957031 299.957031 -79.160156 315.6875 -60.453125 C 331.414062 -41.742188 346.628906 -26.988281 361.328125 -16.1875 C 376.035156 -5.394531 389.765625 0 402.515625 0 L 401.90625 10.796875 C 394.082031 12.023438 386.472656 12.640625 379.078125 12.640625 C 362.210938 12.234375 346.015625 8.171875 330.484375 0.453125 C 314.960938 -7.253906 300.210938 -17.171875 286.234375 -29.296875 C 272.253906 -41.429688 259.144531 -55.15625 246.90625 -70.46875 C 234.675781 -85.789062 223.46875 -101.160156 213.28125 -116.578125 C 203.101562 -132.003906 194.109375 -146.707031 186.296875 -160.6875 C 178.484375 -174.675781 172.003906 -186.609375 166.859375 -196.484375 C 161.515625 -196.066406 155.910156 -195.753906 150.046875 -195.546875 C 144.191406 -195.347656 137.972656 -195.25 131.390625 -195.25 L 118.75 -195.25 C 118.539062 -189.070312 118.28125 -181.921875 117.96875 -173.796875 C 117.664062 -165.679688 117.359375 -157.304688 117.046875 -148.671875 C 116.742188 -140.035156 116.4375 -131.296875 116.125 -122.453125 C 115.820312 -113.609375 115.566406 -105.378906 115.359375 -97.765625 C 115.148438 -90.160156 114.941406 -83.425781 114.734375 -77.5625 C 114.535156 -71.707031 114.4375 -67.34375 114.4375 -64.46875 C 114.4375 -55.625 115.050781 -48.476562 116.28125 -43.03125 C 117.519531 -37.582031 119.367188 -33.210938 121.828125 -29.921875 C 124.296875 -26.628906 127.484375 -24.265625 131.390625 -22.828125 C 135.296875 -21.390625 139.925781 -20.257812 145.28125 -19.4375 L 158.53125 -17.578125 L 158.53125 0 C 154.007812 -0.613281 148.5625 -1.332031 142.1875 -2.15625 C 136.84375 -2.570312 130.265625 -3.035156 122.453125 -3.546875 C 114.640625 -4.054688 105.59375 -4.3125 95.3125 -4.3125 C 84.820312 -4.3125 73.304688 -4.003906 60.765625 -3.390625 C 48.222656 -2.773438 34.238281 -1.644531 18.8125 0 Z M 119.359375 -216.53125 L 136.953125 -216.53125 C 162.648438 -216.53125 183.929688 -219.5625 200.796875 -225.625 C 217.660156 -231.6875 231.023438 -239.648438 240.890625 -249.515625 C 250.765625 -259.390625 257.707031 -270.703125 261.71875 -283.453125 C 265.726562 -296.203125 267.734375 -309.363281 267.734375 -322.9375 C 267.734375 -329.519531 267.0625 -336.253906 265.71875 -343.140625 C 264.382812 -350.023438 262.125 -356.757812 258.9375 -363.34375 C 255.75 -369.925781 251.53125 -376.144531 246.28125 -382 C 241.039062 -387.863281 234.664062 -393.003906 227.15625 -397.421875 C 219.65625 -401.847656 210.816406 -405.34375 200.640625 -407.90625 C 190.460938 -410.476562 178.796875 -411.765625 165.640625 -411.765625 C 158.234375 -411.765625 151.546875 -411.554688 145.578125 -411.140625 C 139.617188 -410.734375 133.039062 -409.914062 125.84375 -408.6875 Z M 119.359375 -216.53125 "/></g></g><g style="fill:#4cb4d7;fill-opacity:1;"><g transform="translate(777.067527, 879.320937)"><path style="stroke:none" d="M 107.015625 0 L 8.84375 0 L 8.84375 -7.625 L 24.625 -13.359375 L 24.625 -109.109375 L 8.84375 -114.828125 L 8.84375 -122.453125 L 107.015625 -122.453125 L 107.015625 -94.359375 L 98 -94.359375 L 92.28125 -109.28125 L 42.15625 -109.28125 L 42.15625 -68 L 82.046875 -68 L 85.34375 -78.046875 L 93.3125 -78.046875 L 93.3125 -43.890625 L 85.34375 -43.890625 L 82.046875 -55.5 L 42.15625 -55.5 L 42.15625 -13.1875 L 92.28125 -13.1875 L 98 -28.09375 L 107.015625 -28.09375 Z M 107.015625 0 "/></g></g><g style="fill:#4cb4d7;fill-opacity:1;"><g transform="translate(894.500141, 879.320937)"><path style="stroke:none" d="M 132.515625 0 L 85.34375 0 L 85.34375 -7.625 L 99.5625 -13.359375 L 87.25 -44.0625 L 42.15625 -44.0625 L 29.828125 -13.359375 L 43.703125 -7.625 L 43.703125 0 L -1.734375 0 L -1.734375 -7.625 L 12.484375 -13.359375 L 55.15625 -122.453125 L 73.03125 -122.453125 L 117.421875 -13.359375 L 132.515625 -7.625 Z M 82.734375 -55.859375 L 64.34375 -104.59375 L 46.65625 -55.859375 Z M 82.734375 -55.859375 "/></g></g><g style="fill:#4cb4d7;fill-opacity:1;"><g transform="translate(1020.432289, 879.320937)"><path style="stroke:none" d="M 111.53125 -11.796875 C 99.382812 -2.660156 84.988281 1.90625 68.34375 1.90625 C 52.726562 1.90625 39.195312 -3.125 27.75 -13.1875 C 22.195312 -18.039062 17.742188 -24.425781 14.390625 -32.34375 C 11.035156 -40.269531 9.359375 -49.257812 9.359375 -59.3125 C 9.359375 -69.375 11.125 -78.625 14.65625 -87.0625 C 18.1875 -95.507812 22.898438 -102.394531 28.796875 -107.71875 C 40.929688 -118.695312 55.15625 -124.1875 71.46875 -124.1875 C 83.71875 -124.1875 94.410156 -121.703125 103.546875 -116.734375 L 103.546875 -88.46875 L 89.328125 -88.46875 L 86.203125 -106.5 C 83.890625 -109.039062 79.09375 -110.3125 71.8125 -110.3125 C 58.050781 -110.3125 47.238281 -105.507812 39.375 -95.90625 C 31.507812 -86.3125 27.578125 -74.257812 27.578125 -59.75 C 27.578125 -45.238281 31.648438 -33.675781 39.796875 -25.0625 C 47.953125 -16.445312 58.273438 -12.140625 70.765625 -12.140625 C 76.660156 -12.140625 82.5 -13.003906 88.28125 -14.734375 C 94.0625 -16.472656 98.34375 -18.210938 101.125 -19.953125 L 105.28125 -22.546875 Z M 111.53125 -11.796875 "/></g></g><g style="fill:#4cb4d7;fill-opacity:1;"><g transform="translate(1136.477217, 879.320937)"><path style="stroke:none" d="M 83.953125 0 L 34.859375 0 L 34.859375 -7.625 L 50.640625 -13.359375 L 50.640625 -109.28125 L 20.125 -109.28125 L 14.390625 -94.359375 L 3.640625 -94.359375 L 3.640625 -122.453125 L 116.390625 -122.453125 L 116.390625 -94.359375 L 105.640625 -94.359375 L 99.90625 -109.28125 L 68.171875 -109.28125 L 68.171875 -13.359375 L 83.953125 -7.625 Z M 83.953125 0 "/></g></g><g style="fill:#4cb4d7;fill-opacity:1;"><g transform="translate(784.005015, 1008.888301)"><path style="stroke:none" d="M 131.15625 0 L 84.46875 0 L 84.46875 -7.546875 L 98.546875 -13.21875 L 86.34375 -43.609375 L 41.71875 -43.609375 L 29.53125 -13.21875 L 43.265625 -7.546875 L 43.265625 0 L -1.71875 0 L -1.71875 -7.546875 L 12.359375 -13.21875 L 54.59375 -121.203125 L 72.28125 -121.203125 L 116.21875 -13.21875 L 131.15625 -7.546875 Z M 81.890625 -55.28125 L 63.6875 -103.515625 L 46.1875 -55.28125 Z M 81.890625 -55.28125 "/></g></g><g style="fill:#4cb4d7;fill-opacity:1;"><g transform="translate(963.572302, 1008.888301)"><path style="stroke:none" d="M 110.390625 -11.671875 C 98.367188 -2.628906 84.117188 1.890625 67.640625 1.890625 C 52.191406 1.890625 38.800781 -3.085938 27.46875 -13.046875 C 21.976562 -17.847656 17.570312 -24.171875 14.25 -32.015625 C 10.925781 -39.859375 9.265625 -48.753906 9.265625 -58.703125 C 9.265625 -68.660156 11.007812 -77.816406 14.5 -86.171875 C 18 -94.535156 22.664062 -101.347656 28.5 -106.609375 C 40.507812 -117.484375 54.585938 -122.921875 70.734375 -122.921875 C 82.859375 -122.921875 93.441406 -120.457031 102.484375 -115.53125 L 102.484375 -87.546875 L 88.40625 -87.546875 L 85.328125 -105.40625 C 83.035156 -107.925781 78.285156 -109.1875 71.078125 -109.1875 C 57.453125 -109.1875 46.75 -104.4375 38.96875 -94.9375 C 31.1875 -85.4375 27.296875 -73.503906 27.296875 -59.140625 C 27.296875 -44.773438 31.328125 -33.328125 39.390625 -24.796875 C 47.460938 -16.273438 57.679688 -12.015625 70.046875 -12.015625 C 75.878906 -12.015625 81.65625 -12.875 87.375 -14.59375 C 93.101562 -16.3125 97.335938 -18.03125 100.078125 -19.75 L 104.203125 -22.3125 Z M 110.390625 -11.671875 "/></g></g><g style="fill:#4cb4d7;fill-opacity:1;"><g transform="translate(1133.354662, 1008.888301)"><path style="stroke:none" d="M 105.921875 0 L 8.75 0 L 8.75 -7.546875 L 24.375 -13.21875 L 24.375 -107.984375 L 8.75 -113.640625 L 8.75 -121.203125 L 105.921875 -121.203125 L 105.921875 -93.390625 L 97 -93.390625 L 91.328125 -108.15625 L 41.71875 -108.15625 L 41.71875 -67.296875 L 81.203125 -67.296875 L 84.46875 -77.25 L 92.359375 -77.25 L 92.359375 -43.4375 L 84.46875 -43.4375 L 81.203125 -54.9375 L 41.71875 -54.9375 L 41.71875 -13.046875 L 91.328125 -13.046875 L 97 -27.8125 L 105.921875 -27.8125 Z M 105.921875 0 "/></g></g><g style="fill:#4cb4d7;fill-opacity:1;"><g transform="translate(187.076898, 1026.377191)"><path style="stroke:none" d="M 47.625 -241.203125 C 43.53125 -241.203125 40.328125 -239.859375 38.015625 -237.171875 C 35.710938 -234.484375 34.5625 -231.476562 34.5625 -228.15625 L 12.671875 -228.15625 C 12.671875 -237.625 16 -245.6875 22.65625 -252.34375 C 29.570312 -259.257812 37.507812 -262.71875 46.46875 -262.71875 L 220.46875 -262.71875 L 220.46875 -241.203125 L 130.59375 -241.203125 L 130.59375 0 L 107.546875 0 L 107.546875 -241.203125 Z M 47.625 -241.203125 "/></g></g></g></svg>
