<svg xmlns="http://www.w3.org/2000/svg" xmlns:xlink="http://www.w3.org/1999/xlink" width="2048" zoomAndPan="magnify" viewBox="0 0 1536 1535.999932" height="2048" preserveAspectRatio="xMidYMid meet" version="1.2"><defs><clipPath id="656e4cf482"><path d="M 48.652344 117.667969 L 1431.054688 117.667969 L 1431.054688 1500.066406 L 48.652344 1500.066406 Z M 48.652344 117.667969 "/></clipPath><clipPath id="eb9a8d91fb"><path d="M 739.851562 117.667969 C 358.113281 117.667969 48.652344 427.128906 48.652344 808.867188 C 48.652344 1190.605469 358.113281 1500.066406 739.851562 1500.066406 C 1121.59375 1500.066406 1431.054688 1190.605469 1431.054688 808.867188 C 1431.054688 427.128906 1121.59375 117.667969 739.851562 117.667969 Z M 739.851562 117.667969 "/></clipPath><clipPath id="a5e352edd1"><path d="M 566 310 L 624 310 L 624 460 L 566 460 Z M 566 310 "/></clipPath><clipPath id="d50301878c"><path d="M 66.929688 -4.628906 L 1641.03125 48.539062 L 1587.863281 1622.640625 L 13.757812 1569.472656 Z M 66.929688 -4.628906 "/></clipPath><clipPath id="3c4db12f39"><path d="M 66.929688 -4.628906 L 1641.03125 48.539062 L 1587.863281 1622.640625 L 13.757812 1569.472656 Z M 66.929688 -4.628906 "/></clipPath><clipPath id="f843c62d70"><path d="M 647 312 L 1127 312 L 1127 1203 L 647 1203 Z M 647 312 "/></clipPath><clipPath id="cb7fc118bb"><path d="M 66.929688 -4.628906 L 1641.03125 48.539062 L 1587.863281 1622.640625 L 13.757812 1569.472656 Z M 66.929688 -4.628906 "/></clipPath><clipPath id="a08fc6cf74"><path d="M 66.929688 -4.628906 L 1641.03125 48.539062 L 1587.863281 1622.640625 L 13.757812 1569.472656 Z M 66.929688 -4.628906 "/></clipPath><clipPath id="a9718cfac9"><path d="M 813 704 L 937 704 L 937 831 L 813 831 Z M 813 704 "/></clipPath><clipPath id="7710456ebf"><path d="M 66.929688 -4.628906 L 1641.03125 48.539062 L 1587.863281 1622.640625 L 13.757812 1569.472656 Z M 66.929688 -4.628906 "/></clipPath><clipPath id="3d24b4dd90"><path d="M 66.929688 -4.628906 L 1641.03125 48.539062 L 1587.863281 1622.640625 L 13.757812 1569.472656 Z M 66.929688 -4.628906 "/></clipPath><clipPath id="8da278cfa0"><path d="M 851 357 L 1131 357 L 1131 1050 L 851 1050 Z M 851 357 "/></clipPath><clipPath id="83f457a83b"><path d="M 66.929688 -4.628906 L 1641.03125 48.539062 L 1587.863281 1622.640625 L 13.757812 1569.472656 Z M 66.929688 -4.628906 "/></clipPath><clipPath id="39c13d7393"><path d="M 66.929688 -4.628906 L 1641.03125 48.539062 L 1587.863281 1622.640625 L 13.757812 1569.472656 Z M 66.929688 -4.628906 "/></clipPath><clipPath id="f60d07d5fe"><path d="M 790 333 L 1043 333 L 1043 505 L 790 505 Z M 790 333 "/></clipPath><clipPath id="7b14b922be"><path d="M 66.929688 -4.628906 L 1641.03125 48.539062 L 1587.863281 1622.640625 L 13.757812 1569.472656 Z M 66.929688 -4.628906 "/></clipPath><clipPath id="bcedf8e730"><path d="M 66.929688 -4.628906 L 1641.03125 48.539062 L 1587.863281 1622.640625 L 13.757812 1569.472656 Z M 66.929688 -4.628906 "/></clipPath><clipPath id="ffaca423f2"><path d="M 882 570 L 1324 570 L 1324 846 L 882 846 Z M 882 570 "/></clipPath><clipPath id="27156fe552"><path d="M 66.929688 -4.628906 L 1641.03125 48.539062 L 1587.863281 1622.640625 L 13.757812 1569.472656 Z M 66.929688 -4.628906 "/></clipPath><clipPath id="8f57707215"><path d="M 66.929688 -4.628906 L 1641.03125 48.539062 L 1587.863281 1622.640625 L 13.757812 1569.472656 Z M 66.929688 -4.628906 "/></clipPath></defs><g id="acea45551d"><g clip-rule="nonzero" clip-path="url(#656e4cf482)"><g clip-rule="nonzero" clip-path="url(#eb9a8d91fb)"><path style=" stroke:none;fill-rule:nonzero;fill:#ffffff;fill-opacity:1;" d="M 48.652344 117.667969 L 1431.054688 117.667969 L 1431.054688 1500.066406 L 48.652344 1500.066406 Z M 48.652344 117.667969 "/></g></g><g clip-rule="nonzero" clip-path="url(#a5e352edd1)"><g clip-rule="nonzero" clip-path="url(#d50301878c)"><g clip-rule="nonzero" clip-path="url(#3c4db12f39)"><path style=" stroke:none;fill-rule:nonzero;fill:#4cb3d4;fill-opacity:1;" d="M 583.40625 459.035156 C 583.40625 459.035156 588.152344 412.136719 598.042969 380.660156 C 605.382812 357.300781 617.003906 348.835938 623.984375 340.574219 C 623.984375 340.574219 615.746094 322.207031 618.558594 311.921875 C 620.625 304.375 601.285156 329.703125 595.71875 339.621094 C 589.171875 351.285156 580.542969 370.320312 574.074219 398.355469 C 567.828125 425.410156 566.515625 458.464844 566.515625 458.464844 Z M 583.40625 459.035156 "/></g></g></g><g clip-rule="nonzero" clip-path="url(#f843c62d70)"><g clip-rule="nonzero" clip-path="url(#cb7fc118bb)"><g clip-rule="nonzero" clip-path="url(#a08fc6cf74)"><path style=" stroke:none;fill-rule:nonzero;fill:#4cb3d4;fill-opacity:1;" d="M 647.605469 802.796875 L 688.792969 804.1875 C 724.109375 805.382812 756.109375 825.304688 772.761719 856.472656 L 821.992188 948.585938 C 822.339844 949.238281 822.695312 949.886719 823.058594 950.53125 L 862.882812 1021.210938 C 862.882812 1021.210938 930.890625 1121.976562 989.613281 1147.378906 C 1048.339844 1172.78125 1115.039062 1124.640625 1095.695312 990.507812 C 1077.554688 864.734375 972.445312 663.703125 965.511719 652.289062 C 958.574219 640.875 883.285156 516.96875 800.113281 429.0625 C 716.9375 341.160156 663.699219 326.328125 663.699219 326.328125 L 664.179688 312.082031 C 664.179688 312.082031 715.605469 338.820312 722.320312 343.835938 C 729.035156 348.855469 782.835938 380.914062 849.625 455.8125 C 916.402344 530.710938 908.636719 525.882812 957.203125 597.378906 C 1005.773438 668.875 1040.578125 745.972656 1056.207031 784.082031 C 1090.660156 868.078125 1118.089844 940.015625 1125.265625 1030.070312 C 1135.765625 1161.917969 1058.703125 1287.0625 884.867188 1128.167969 C 828.148438 1076.320312 781.917969 1017.328125 764.15625 991.148438 C 703.476562 901.714844 647.605469 802.796875 647.605469 802.796875 Z M 647.605469 802.796875 "/></g></g></g><g clip-rule="nonzero" clip-path="url(#a9718cfac9)"><g clip-rule="nonzero" clip-path="url(#7710456ebf)"><g clip-rule="nonzero" clip-path="url(#3d24b4dd90)"><path style=" stroke:none;fill-rule:nonzero;fill:#4cb3d4;fill-opacity:1;" d="M 906.125 704.761719 C 920.105469 715.851562 931.53125 727.410156 935.25 745.757812 C 946.023438 799 891.613281 844.421875 840.777344 827.195312 C 828.8125 823.144531 820.144531 815.566406 813.402344 805.207031 C 843.886719 786.628906 850.078125 787.59375 872.597656 761.878906 C 895.117188 736.164062 901.566406 714.023438 906.125 704.761719 Z M 906.125 704.761719 "/></g></g></g><g clip-rule="nonzero" clip-path="url(#8da278cfa0)"><g clip-rule="nonzero" clip-path="url(#83f457a83b)"><g clip-rule="nonzero" clip-path="url(#39c13d7393)"><path style=" stroke:none;fill-rule:nonzero;fill:#4cb3d4;fill-opacity:1;" d="M 874.257812 1049.398438 C 874.257812 1049.398438 941.257812 981.394531 1006.203125 878.964844 C 1065.355469 785.6875 1112.496094 647.265625 1125.664062 560.390625 C 1133.304688 509.984375 1131.476562 468.464844 1126.320312 436.421875 C 1118.023438 384.882812 1101.109375 357.871094 1101.109375 357.871094 L 1099.628906 401.632812 C 1099.628906 401.632812 1117.417969 462.21875 1106.515625 559.746094 C 1099.480469 622.625 1078.453125 678.320312 1039.871094 751.132812 C 1001.289062 823.945312 978.710938 856.234375 963.414062 877.519531 C 918.457031 940.066406 851.796875 1015.542969 851.796875 1015.542969 Z M 874.257812 1049.398438 "/></g></g></g><g clip-rule="nonzero" clip-path="url(#f60d07d5fe)"><g clip-rule="nonzero" clip-path="url(#7b14b922be)"><g clip-rule="nonzero" clip-path="url(#bcedf8e730)"><path style=" stroke:none;fill-rule:nonzero;fill:#4cb3d4;fill-opacity:1;" d="M 790.816406 503.308594 L 823.148438 504.402344 C 823.148438 504.402344 931.085938 386.683594 1033.667969 363.285156 C 1033.667969 363.285156 1033.242188 345.386719 1041.863281 335.261719 C 1050.476562 325.132812 929.097656 352.878906 790.816406 503.308594 Z M 790.816406 503.308594 "/></g></g></g><g clip-rule="nonzero" clip-path="url(#ffaca423f2)"><g clip-rule="nonzero" clip-path="url(#27156fe552)"><g clip-rule="nonzero" clip-path="url(#8f57707215)"><path style=" stroke:none;fill-rule:nonzero;fill:#4cb3d4;fill-opacity:1;" d="M 897.316406 594.707031 C 897.316406 594.707031 1257 671.292969 1292.414062 790.390625 C 1292.414062 790.390625 1293.683594 793.332031 1288.792969 799.230469 L 1287.242188 845.136719 C 1287.242188 845.136719 1371.5 804.238281 1282.070312 724.472656 C 1192.644531 644.707031 1028.09375 605.996094 882.039062 570.097656 Z M 897.316406 594.707031 "/></g></g></g><g style="fill:#4eb4d7;fill-opacity:1;"><g transform="translate(398.103471, 1150.28392)"><path style="stroke:none" d="M 30.359375 -28.359375 C 38.984375 -29.023438 46.613281 -29.6875 53.25 -30.34375 C 59.882812 -31.007812 66.019531 -31.675781 71.65625 -32.34375 C 77.300781 -33.007812 82.773438 -33.507812 88.078125 -33.84375 C 93.390625 -34.175781 99.03125 -34.503906 105 -34.828125 C 106.65625 -78.953125 108.226562 -122.578125 109.71875 -165.703125 C 111.21875 -208.835938 112.628906 -250.144531 113.953125 -289.625 C 115.285156 -329.101562 116.613281 -365.925781 117.9375 -400.09375 C 119.269531 -434.269531 120.429688 -464.460938 121.421875 -490.671875 C 122.421875 -516.878906 123.164062 -538.441406 123.65625 -555.359375 C 124.15625 -572.273438 124.40625 -583.222656 124.40625 -588.203125 C 124.40625 -602.472656 123.410156 -614.082031 121.421875 -623.03125 C 119.429688 -631.988281 116.363281 -639.039062 112.21875 -644.1875 C 108.070312 -649.332031 102.847656 -652.984375 96.546875 -655.140625 C 90.242188 -657.296875 82.941406 -659.035156 74.640625 -660.359375 L 52.75 -663.34375 L 52.75 -692.203125 C 62.039062 -690.878906 71.992188 -689.554688 82.609375 -688.234375 C 91.566406 -687.234375 101.765625 -686.398438 113.203125 -685.734375 C 124.648438 -685.078125 136.515625 -684.75 148.796875 -684.75 C 160.078125 -684.75 170.859375 -685.410156 181.140625 -686.734375 C 191.421875 -688.066406 202.035156 -689.476562 212.984375 -690.96875 C 223.929688 -692.457031 235.539062 -693.863281 247.8125 -695.1875 C 260.09375 -696.519531 273.695312 -697.1875 288.625 -697.1875 C 328.4375 -697.1875 362.441406 -692.289062 390.640625 -682.5 C 418.835938 -672.71875 441.894531 -659.613281 459.8125 -643.1875 C 477.726562 -626.769531 490.832031 -608.023438 499.125 -586.953125 C 507.414062 -565.890625 511.5625 -544.242188 511.5625 -522.015625 C 511.5625 -491.492188 506.003906 -465.285156 494.890625 -443.390625 C 483.785156 -421.492188 470.1875 -403 454.09375 -387.90625 C 438 -372.8125 420.910156 -360.703125 402.828125 -351.578125 C 384.753906 -342.453125 368.75 -335.734375 354.8125 -331.421875 C 380.03125 -285.972656 405.742188 -243.175781 431.953125 -203.03125 C 458.160156 -162.894531 483.953125 -127.726562 509.328125 -97.53125 C 534.703125 -67.34375 559.25 -43.539062 582.96875 -26.125 C 606.695312 -8.707031 628.84375 0 649.40625 0 L 648.421875 17.421875 C 635.816406 19.410156 623.539062 20.40625 611.59375 20.40625 C 584.382812 19.738281 558.253906 13.179688 533.203125 0.734375 C 508.160156 -11.703125 484.359375 -27.707031 461.796875 -47.28125 C 439.242188 -66.851562 418.097656 -88.992188 398.359375 -113.703125 C 378.617188 -138.421875 360.535156 -163.21875 344.109375 -188.09375 C 327.691406 -212.976562 313.175781 -236.703125 300.5625 -259.265625 C 287.957031 -281.828125 277.507812 -301.070312 269.21875 -317 C 260.59375 -316.332031 251.550781 -315.832031 242.09375 -315.5 C 232.644531 -315.164062 222.613281 -315 212 -315 L 191.59375 -315 C 191.257812 -305.050781 190.84375 -293.523438 190.34375 -280.421875 C 189.84375 -267.316406 189.34375 -253.796875 188.84375 -239.859375 C 188.351562 -225.921875 187.859375 -211.816406 187.359375 -197.546875 C 186.859375 -183.285156 186.441406 -170.019531 186.109375 -157.75 C 185.785156 -145.476562 185.457031 -134.613281 185.125 -125.15625 C 184.789062 -115.695312 184.625 -108.644531 184.625 -104 C 184.625 -89.738281 185.617188 -78.210938 187.609375 -69.421875 C 189.597656 -60.628906 192.582031 -53.578125 196.5625 -48.265625 C 200.539062 -42.960938 205.679688 -39.148438 211.984375 -36.828125 C 218.296875 -34.503906 225.765625 -32.675781 234.390625 -31.34375 L 255.78125 -28.359375 L 255.78125 0 C 248.488281 -1 239.695312 -2.160156 229.40625 -3.484375 C 220.78125 -4.148438 210.164062 -4.894531 197.5625 -5.71875 C 184.957031 -6.550781 170.359375 -6.96875 153.765625 -6.96875 C 136.847656 -6.96875 118.269531 -6.46875 98.03125 -5.46875 C 77.789062 -4.476562 55.234375 -2.65625 30.359375 0 Z M 192.578125 -349.34375 L 220.953125 -349.34375 C 262.421875 -349.34375 296.753906 -354.234375 323.953125 -364.015625 C 351.160156 -373.804688 372.726562 -386.660156 388.65625 -402.578125 C 404.582031 -418.503906 415.78125 -436.753906 422.25 -457.328125 C 428.71875 -477.898438 431.953125 -499.132812 431.953125 -521.03125 C 431.953125 -531.644531 430.875 -542.507812 428.71875 -553.625 C 426.5625 -564.738281 422.910156 -575.601562 417.765625 -586.21875 C 412.617188 -596.832031 405.816406 -606.863281 397.359375 -616.3125 C 388.898438 -625.769531 378.613281 -634.066406 366.5 -641.203125 C 354.394531 -648.335938 340.128906 -653.976562 323.703125 -658.125 C 307.285156 -662.269531 288.460938 -664.34375 267.234375 -664.34375 C 255.285156 -664.34375 244.5 -664.007812 234.875 -663.34375 C 225.257812 -662.6875 214.644531 -661.359375 203.03125 -659.359375 Z M 192.578125 -349.34375 "/></g></g><g style="fill:#4eb4d7;fill-opacity:1;"><g transform="translate(153.600021, 1229.843703)"><path style="stroke:none" d="M 76.84375 -389.15625 C 70.226562 -389.15625 65.0625 -386.988281 61.34375 -382.65625 C 57.625 -378.320312 55.765625 -373.46875 55.765625 -368.09375 L 20.453125 -368.09375 C 20.453125 -383.375 25.820312 -396.390625 36.5625 -407.140625 C 47.71875 -418.285156 60.523438 -423.859375 74.984375 -423.859375 L 355.703125 -423.859375 L 355.703125 -389.15625 L 210.6875 -389.15625 L 210.6875 0 L 173.515625 0 L 173.515625 -389.15625 Z M 76.84375 -389.15625 "/></g></g></g></svg>